HIERARCHY
ROOT Hip
{
  OFFSET 0.0 0.0 0.0
  CHANNELS 6 Xposition Yposition Zposition Xrotation Yrotation Zrotation
  JOINT LowerSpine
  {
    OFFSET 0.0 0.061367 -0.03653
    CHANNELS 3 Xrotation Yrotation Zrotation
    JOINT MiddleSpine
    {
      OFFSET 0.0 0.056002 0.002633
      CHANNELS 3 Xrotation Yrotation Zrotation
      JOINT Chest
      {
        OFFSET 0.0 0.069296 -0.013882
        CHANNELS 3 Xrotation Yrotation Zrotation
        JOINT Neck
        {
          OFFSET 0.0 0.156156 -0.002923
          CHANNELS 3 Xrotation Yrotation Zrotation
          JOINT Head
          {
            OFFSET 0.0 0.088183 0.023986
            CHANNELS 3 Xrotation Yrotation Zrotation
            End Site
            {
              OFFSET 1e-06 0.123215 0.003678
            }
          }
        }
        JOINT LClavicle
        {
          OFFSET 0.014189 0.150698 0.046467
          CHANNELS 3 Xrotation Yrotation Zrotation
          JOINT LShoulder
          {
            OFFSET 0.082893 0.021616 -0.034976
            CHANNELS 3 Xrotation Yrotation Zrotation
            JOINT LForearm
            {
              OFFSET 0.195645 -0.000695 -0.001695
              CHANNELS 3 Xrotation Yrotation Zrotation
              JOINT LHand
              {
                OFFSET 0.163209 0.000474 -0.000977
                CHANNELS 3 Xrotation Yrotation Zrotation
                End Site
                {
                  OFFSET 0.0 0.006864 0.0
                }
              }
            }
          }
        }
        JOINT RClavicle
        {
          OFFSET -0.014189 0.150698 0.046467
          CHANNELS 3 Xrotation Yrotation Zrotation
          JOINT RShoulder
          {
            OFFSET -0.082908 0.021619 -0.034982
            CHANNELS 3 Xrotation Yrotation Zrotation
            JOINT RForearm
            {
              OFFSET -0.195645 -0.000695 -0.001695
              CHANNELS 3 Xrotation Yrotation Zrotation
              JOINT RHand
              {
                OFFSET -0.163209 0.000474 -0.000977
                CHANNELS 3 Xrotation Yrotation Zrotation
                End Site
                {
                  OFFSET 0.0 0.006864 0.0
                }
              }
            }
          }
        }
      }
    }
  }
  JOINT RThigh
  {
    OFFSET -0.072558 0.02774 -0.005953
    CHANNELS 3 Xrotation Yrotation Zrotation
    JOINT RShin
    {
      OFFSET -0.005253 -0.285537 0.0
      CHANNELS 3 Xrotation Yrotation Zrotation
      JOINT RFoot
      {
        OFFSET 0.0 -0.28038 0.0
        CHANNELS 3 Xrotation Yrotation Zrotation
        JOINT RToe
        {
          OFFSET 0.0 -0.030816 0.064441
          CHANNELS 3 Xrotation Yrotation Zrotation
          End Site
          {
            OFFSET 0.0 0.0 0.043231
          }
        }
      }
    }
  }
  JOINT LThigh
  {
    OFFSET 0.072557 0.027741 -0.005953
    CHANNELS 3 Xrotation Yrotation Zrotation
    JOINT LShin
    {
      OFFSET 0.005253 -0.285539 0.0
      CHANNELS 3 Xrotation Yrotation Zrotation
      JOINT LFoot
      {
        OFFSET 0.0 -0.28038 0.0
        CHANNELS 3 Xrotation Yrotation Zrotation
        JOINT LToe
        {
          OFFSET 0.0 -0.030816 0.064441
          CHANNELS 3 Xrotation Yrotation Zrotation
          End Site
          {
            OFFSET 0.0 0.0 0.043231
          }
        }
      }
    }
  }
}
MOTION
Frames: 8
Frame Time: 0.03333333333333333
-0.681045 0.539807 0.871316 4.397691 44.980114 16.683804 6.471941 9.53731 -28.985752 0.218249 -12.352496 -23.467224 -6.535682 -3.639414 17.916082 15.722481 -21.420391 13.258029 -9.675939 25.690777 7.452106 -14.642669 19.581169 6.554721 5.541928 -5.774101 -32.542618 -15.36777 -44.730618 -26.514013 -16.939409 -14.275496 15.096052 13.067899 15.340179 20.924862 -13.819111 33.711357 39.923233 -37.538334 56.417641 30.090317 22.913952 7.733928 11.889532 -28.010384 4.165144 -19.394934 31.561451 17.261385 22.30537 -16.050722 -8.332019 19.133839 7.735158 -22.458929 -12.711512 -8.303479 8.458353 -18.90811 19.631721 14.022627 19.35561 7.646912 3.492376 -23.918922 -16.879917 21.772898 10.132761 
-0.670126 0.539402 0.879049 4.270346 43.807877 16.953062 5.836056 9.34726 -28.866142 -0.122988 -12.441539 -23.646341 -6.241323 -5.018612 17.516258 15.677211 -21.552017 13.036019 -9.605947 25.595087 7.378645 -14.876743 19.750757 6.384821 5.002416 -5.244867 -31.586992 -16.192928 -46.203922 -27.805542 -16.96731 -14.270836 14.988201 13.146048 15.662676 21.221899 -12.140597 34.353775 40.135448 -37.308369 56.321659 30.987186 22.909971 7.639832 11.781998 -29.68219 4.049094 -18.955667 31.21541 17.51931 21.977074 -14.94428 -8.470253 19.659321 8.403312 -22.180473 -12.614482 -6.605359 7.873363 -19.704792 19.353508 14.060062 19.167183 7.173575 3.586371 -23.876156 -16.914631 21.750731 10.162251 
-0.661483 0.54117 0.887978 4.033847 42.482597 17.162609 5.994335 9.125467 -29.003647 -0.401248 -12.513644 -23.722202 -5.903692 -5.850836 17.367239 16.076622 -21.504852 13.059711 -9.434489 25.585831 7.364391 -15.213372 19.617651 6.451005 3.84247 -4.739267 -31.026432 -17.191027 -48.10939 -29.426003 -16.869585 -14.310766 14.989306 12.969765 16.360386 21.190384 -11.633388 34.953419 41.159637 -36.641926 54.862244 31.407082 22.979975 7.50403 11.645543 -30.823183 4.20743 -18.072422 29.792841 18.095575 21.676624 -13.624582 -8.176108 20.399704 9.419454 -21.929165 -12.322277 -4.765856 7.333481 -20.50794 18.99037 14.289392 19.025909 6.345164 3.076174 -24.099627 -16.720501 21.789511 10.330682 
-0.650774 0.543265 0.898002 4.271606 41.505775 16.846907 5.773495 9.014756 -29.079185 -0.67008 -12.670129 -23.657211 -5.641854 -6.669476 17.302626 16.53031 -21.519699 13.128206 -9.378375 25.644709 7.310726 -15.303824 19.709352 6.33673 2.930896 -4.691233 -30.573164 -18.268644 -50.392731 -31.348551 -16.710016 -14.355062 15.109654 12.880261 16.805792 21.233074 -10.749064 35.355972 41.313358 -36.108795 53.394657 31.6532 23.031193 7.365309 11.64667 -31.873491 4.300823 -16.993891 27.758888 18.809639 21.434042 -12.364776 -7.811423 21.193024 10.403781 -21.691505 -12.128263 -3.395448 7.152198 -21.079941 19.200787 14.916222 18.807301 5.709079 2.732299 -24.274977 -16.55027 21.885014 10.498007 
-0.638199 0.545166 0.90858 4.759845 40.556637 16.25359 5.407923 8.810119 -29.000725 -0.972593 -12.871074 -23.342216 -5.436828 -7.184227 17.239647 16.745716 -21.402233 13.318791 -9.360422 25.541954 7.140882 -15.149446 19.81179 6.172086 2.423108 -5.056311 -30.312035 -19.435167 -52.995316 -33.296432 -16.470808 -14.311314 15.151573 12.815984 17.083954 20.955093 -9.761127 35.694851 41.024734 -35.165222 51.972462 31.446293 22.946955 7.179179 11.606503 -32.666744 4.376698 -16.002419 25.525152 19.440575 21.258261 -11.148334 -7.248266 21.87402 11.288624 -21.289564 -11.901371 -2.123421 7.229475 -21.22114 19.587202 15.511826 18.391411 4.980885 2.586904 -24.290911 -16.420593 21.847111 10.522791 
-0.623029 0.547256 0.920203 5.407887 39.049488 15.601383 4.923525 8.551953 -28.783756 -1.314189 -12.716593 -22.890299 -5.284391 -7.266861 17.542061 17.049034 -20.93792 13.377217 -9.288383 25.321455 6.903777 -14.848058 20.035067 5.95009 2.250077 -5.500232 -30.419327 -20.905184 -55.589924 -35.087486 -16.158936 -14.187967 15.137228 12.979371 16.796309 20.687595 -8.957835 36.078251 40.407677 -33.958431 50.725353 31.069178 22.836876 6.961861 11.443946 -32.784058 4.21993 -15.156285 23.558439 19.824673 21.121105 -9.926677 -6.664353 22.406044 11.875261 -20.880936 -11.607648 -0.839248 7.589071 -21.277336 19.790852 15.988279 17.918335 4.822134 2.587738 -24.123886 -16.288801 21.707344 10.439811 
-0.607202 0.549765 0.932155 6.22293 37.747654 14.937523 4.385997 8.374176 -28.592173 -1.439162 -12.544663 -22.464182 -5.178444 -7.146605 17.899107 17.060432 -20.592106 13.355487 -9.189718 25.182821 6.741525 -14.54136 20.321541 5.592718 2.183568 -5.842647 -30.656494 -22.545202 -57.464771 -36.825993 -15.884821 -14.112081 15.178487 13.302923 16.262171 20.560711 -8.557836 36.387108 39.392681 -33.110332 49.606445 30.652861 22.777494 6.788654 11.354288 -32.594379 4.021486 -14.714488 21.92655 20.140245 21.045059 -9.154317 -6.02186 22.880877 12.219877 -20.638868 -11.42874 -0.217902 7.999912 -21.123556 20.242168 16.430576 17.509106 4.965672 2.681127 -23.991758 -16.162273 21.658945 10.398615 
-0.592134 0.55219 0.944115 6.93187 36.74445 14.441049 3.87613 8.332833 -28.472963 -1.41629 -12.391755 -22.222147 -5.077203 -6.956586 18.319393 16.887972 -20.472801 13.275618 -9.10569 25.18088 6.751982 -14.263857 20.66913 5.240949 2.144516 -6.031348 -30.851603 -24.413847 -58.780029 -38.551476 -15.685266 -14.163448 15.292522 13.673379 15.694568 20.54632 -8.345245 36.700489 38.215603 -32.826813 48.970875 30.652485 22.782663 6.696883 11.413561 -32.26564 3.866481 -14.643023 20.805338 20.365335 21.030462 -8.882959 -5.47745 23.262114 12.377357 -20.597692 -11.417418 -0.215731 8.40289 -20.825886 20.888376 16.960958 17.179379 5.371032 2.838557 -23.986488 -16.122654 21.714563 10.438972 
